{
  "accessors": [
    {
      "bufferView": 0,
      "componentType": 5126,
      "count": 1548,
      "max": [
        27.82048797607422,
        1.742621898651123,
        34.64094543457031
      ],
      "min": [
        -27.820499420166016,
        -1.7426400184631348,
        0.0
      ],
      "type": "VEC3"
    },
    {
      "bufferView": 1,
      "componentType": 5125,
      "count": 1675,
      "type": "SCALAR"
    },
    {
      "bufferView": 2,
      "componentType": 5126,
      "count": 1548,
      "type": "VEC3"
    },
    {
      "bufferView": 3,
      "componentType": 5126,
      "count": 1548,
      "type": "VEC4"
    },
    {
      "bufferView": 4,
      "componentType": 5126,
      "count": 1548,
      "type": "VEC2"
    },
    {
      "bufferView": 5,
      "componentType": 5126,
      "count": 24,
      "max": [
        24.651552200317383,
        1.706809639930725,
        31.468395233154297
      ],
      "min": [
        -24.642099380493164,
        0.7335540056228638,
        3.1835899353027344
      ],
      "type": "VEC3"
    },
    {
      "bufferView": 6,
      "componentType": 5125,
      "count": 34,
      "type": "SCALAR"
    },
    {
      "bufferView": 7,
      "componentType": 5126,
      "count": 24,
      "type": "VEC3"
    },
    {
      "bufferView": 8,
      "componentType": 5126,
      "count": 24,
      "type": "VEC4"
    },
    {
      "bufferView": 9,
      "componentType": 5126,
      "count": 24,
      "type": "VEC2"
    }
  ],
  "asset": {
    "version": "2.0"
  },
  "bufferViews": [
    {
      "buffer": 0,
      "byteLength": 18576,
      "target": 34962
    },
    {
      "buffer": 1,
      "byteLength": 6700,
      "target": 34963
    },
    {
      "buffer": 2,
      "byteLength": 18576,
      "target": 34962
    },
    {
      "buffer": 3,
      "byteLength": 24768,
      "target": 34962
    },
    {
      "buffer": 4,
      "byteLength": 12384,
      "target": 34962
    },
    {
      "buffer": 5,
      "byteLength": 288,
      "target": 34962
    },
    {
      "buffer": 6,
      "byteLength": 136,
      "target": 34963
    },
    {
      "buffer": 7,
      "byteLength": 288,
      "target": 34962
    },
    {
      "buffer": 8,
      "byteLength": 384,
      "target": 34962
    },
    {
      "buffer": 9,
      "byteLength": 192,
      "target": 34962
    }
  ],
  "buffers": [
    {
      "byteLength": 18576,
      "uri": "data:application/octet-stream;base64,"
    },
    {
      "byteLength": 6700,
      "uri": "data:application/octet-stream;base64,"
    },
    {
      "byteLength": 18576,
      "uri": "data:application/octet-stream;base64,"
    },
    {
      "byteLength": 24768,
      "uri": "data:application/octet-stream;base64,"
    },
    {
      "byteLength": 12384,
      "uri": "data:application/octet-stream;base64,"
    },
    {
      "byteLength": 288,
      "uri": "data:application/octet-stream;base64,"
    },
    {
      "byteLength": 136,
      "uri": "data:application/octet-stream;base64,"
    },
    {
      "byteLength": 288,
      "uri": "data:application/octet-stream;base64,"
    },
    {
      "byteLength": 384,
      "uri": "data:application/octet-stream;base64,"
    },
    {
      "byteLength": 192,
      "uri": "data:application/octet-stream;base64,"
    }
  ],
  "materials": [
    {
      "doubleSided": true,
      "name": "frame_Mat",
      "normalTexture" : {
      "index" : 7,
      "scale" : 2
      },
      "emissiveFactor" : [1.0,1.0,1.0],
      "emissiveTexture" : {
      "index" : 5
      },
      "pbrMetallicRoughness": {
        "baseColorTexture" : {"index" : 5},
        "metallicFactor" : 0,
        "metallicRoughnessTexture" : { "index" : 0 },
        "baseColorFactor": [
          1.0,
          1.0,
          1.0,
          1.0
        ]
      }
    }
,   {
      "doubleSided": true,
      "name": "picture_Mat",
      "normalTexture" : {
      "index" : 6,
      "scale" : 2
      },
      "emissiveFactor" : [1.0,1.0,1.0],
      "emissiveTexture" : {
      "index" : 2
      },
      "pbrMetallicRoughness": {
        "baseColorTexture" : {"index" : 2},
        "metallicFactor" : 0,
        "metallicRoughnessTexture" : { "index" : 1 },
        "baseColorFactor": [
          1.0,
          1.0,
          1.0,
          1.0
        ]
      }
    }
  ],
  "images": [
    {
         "uri" : "273be275c8724c038d40ae27de4d84dd_R_frame_Mat_Glossiness.png"
    },
    {
         "uri" : "39b5b68ff8344f3ca0b45ea4cea9bc2b_R_picture_Mat_Glossiness.png"
    },
    {
         "uri" : "8b91e67beaea4273a5f5e1b00d623839_RGB_picture_Mat_Diffuse.png"
    },
    {
         "uri" : "8e1157842e494bbaa7c0a31d9267f5b5_RGB_picture_Mat_Specular.png"
    },
    {
         "uri" : "a2d13b7a97ae41919c3f89d5d5b59603_RGB_frame_Mat_Specular.png"
    },
    {
         "uri" : "c60f510e4dce44dd99f697aaf1d25575_RGB_frame_Mat_Diffuse.png"
    },
    {
         "uri" : "cd672f3baa984e5abc387557b11d6982_N_picture_Mat_Normal.png"
    },
    {
         "uri" : "cd6fb913087a451083e32bed644255b2_N_frame_Mat_Normal.png"
    }
  ],
  "textures": [
    {
         "source" : 0
    },
    {
         "source" : 1
    },
    {
         "source" : 2
    },
    {
         "source" : 3
    },
    {
         "source" : 4
    },
    {
         "source" : 5
    },
    {
         "source" : 6
    },
    {
         "source" : 7
    }
  ],
  "meshes": [
    {
      "primitives": [
        {
          "attributes": {
            "NORMAL": 2,
            "POSITION": 0,
            "TANGENT": 3,
            "TEXCOORD_0": 4
          },
          "indices": 1,
          "mode": 5
        }
      ]
    },
    {
      "primitives": [
        {
          "attributes": {
            "NORMAL": 7,
            "POSITION": 5,
            "TANGENT": 8,
            "TEXCOORD_0": 9
          },
          "indices": 6,
          "mode": 5
        }
      ]
    }
  ],
  "nodes": [
    {
      "mesh": 0,
      "name": "_gltfNode_0"
    },
    {
      "mesh": 1,
      "name": "_gltfNode_1"
    },
    {
      "children": [
        0,
        1
      ],
      "name": "GLTF Converted Scene",
      "rotation": [
        -0.7071067811865475,
        0.0,
        0.0,
        0.7071067811865476
      ],
      "scale": [
        1.0,
        1.0,
        1.0
      ],
      "translation": [
        0.0,
        0.0,
        0.0
      ]
    }
  ],
  "scene": 0,
  "scenes": [
    {
      "nodes": [
        2
      ]
    }
  ]
}
