{
  "accessors": [
    {
      "bufferView": 2,
      "componentType": 5126,
      "count": 3184,
      "max": [
        -41.89576721191406,
        24.310890197753906,
        -16.895761489868164
      ],
      "min": [
        -58.104225158691406,
        0.0,
        -33.10423278808594
      ],
      "type": "VEC3"
    },
    {
      "bufferView": 2,
      "byteOffset": 38208,
      "componentType": 5126,
      "count": 3184,
      "max": [
        1.0,
        1.0,
        1.0
      ],
      "min": [
        -1.0,
        -1.0,
        -1.0
      ],
      "type": "VEC3"
    },
    {
      "bufferView": 3,
      "componentType": 5126,
      "count": 3184,
      "max": [
        1.0,
        1.0,
        0.9973844885826111,
        1.0
      ],
      "min": [
        -0.9999303221702576,
        -1.0,
        -0.9973844885826111,
        1.0
      ],
      "type": "VEC4"
    },
    {
      "bufferView": 1,
      "componentType": 5126,
      "count": 3184,
      "max": [
        0.9739840030670166,
        0.5581150054931641
      ],
      "min": [
        0.01944500021636486,
        0.005810000002384186
      ],
      "type": "VEC2"
    },
    {
      "bufferView": 0,
      "componentType": 5125,
      "count": 10920,
      "type": "SCALAR"
    },
    {
      "bufferView": 2,
      "byteOffset": 76416,
      "componentType": 5126,
      "count": 1501,
      "max": [
        7.72418212890625,
        13.114891052246094,
        6.466578006744385
      ],
      "min": [
        -6.466582775115967,
        0.0,
        -6.466580867767334
      ],
      "type": "VEC3"
    },
    {
      "bufferView": 2,
      "byteOffset": 94428,
      "componentType": 5126,
      "count": 1501,
      "max": [
        0.9991941452026367,
        1.0,
        0.9999856352806091
      ],
      "min": [
        -0.9998893737792969,
        -1.0,
        -0.9972751140594482
      ],
      "type": "VEC3"
    },
    {
      "bufferView": 3,
      "byteOffset": 50944,
      "componentType": 5126,
      "count": 1501,
      "max": [
        0.9999989867210388,
        0.9992168545722961,
        0.9880712628364563,
        1.0
      ],
      "min": [
        -1.0,
        -0.9996016025543213,
        -0.9999461770057678,
        1.0
      ],
      "type": "VEC4"
    },
    {
      "bufferView": 1,
      "byteOffset": 25472,
      "componentType": 5126,
      "count": 1501,
      "max": [
        0.8037639856338501,
        0.37451601028442383
      ],
      "min": [
        0.018407000228762627,
        0.02318499982357025
      ],
      "type": "VEC2"
    },
    {
      "bufferView": 0,
      "byteOffset": 43680,
      "componentType": 5125,
      "count": 5538,
      "type": "SCALAR"
    },
    {
      "bufferView": 2,
      "byteOffset": 112440,
      "componentType": 5126,
      "count": 4478,
      "max": [
        28.914932250976563,
        178.48019409179688,
        25.04108428955078
      ],
      "min": [
        -28.91492462158203,
        0.0,
        -25.04108428955078
      ],
      "type": "VEC3"
    },
    {
      "bufferView": 2,
      "byteOffset": 166176,
      "componentType": 5126,
      "count": 4478,
      "max": [
        0.9999940991401672,
        1.0,
        1.0
      ],
      "min": [
        -0.9999412298202515,
        -1.0,
        -1.0
      ],
      "type": "VEC3"
    },
    {
      "bufferView": 3,
      "byteOffset": 74960,
      "componentType": 5126,
      "count": 4478,
      "max": [
        1.0,
        0.9972907304763794,
        0.9998974800109863,
        1.0
      ],
      "min": [
        -1.0,
        -0.9920927882194519,
        -0.9999620914459229,
        1.0
      ],
      "type": "VEC4"
    },
    {
      "bufferView": 1,
      "byteOffset": 37480,
      "componentType": 5126,
      "count": 4478,
      "max": [
        0.9981729984283447,
        0.9843930006027222
      ],
      "min": [
        0.006682000122964382,
        0.010250999592244625
      ],
      "type": "VEC2"
    },
    {
      "bufferView": 0,
      "byteOffset": 65832,
      "componentType": 5125,
      "count": 14424,
      "type": "SCALAR"
    },
    {
      "bufferView": 2,
      "byteOffset": 219912,
      "componentType": 5126,
      "count": 2751,
      "max": [
        14.817514419555664,
        9.09454345703125,
        20.885454177856445
      ],
      "min": [
        -14.817514419555664,
        -1.1119309663772583,
        -20.885454177856445
      ],
      "type": "VEC3"
    },
    {
      "bufferView": 2,
      "byteOffset": 252924,
      "componentType": 5126,
      "count": 2751,
      "max": [
        1.0,
        1.0,
        1.0
      ],
      "min": [
        -1.0,
        -1.0,
        -1.0
      ],
      "type": "VEC3"
    },
    {
      "bufferView": 3,
      "byteOffset": 146608,
      "componentType": 5126,
      "count": 2751,
      "max": [
        1.0,
        1.0,
        1.0,
        1.0
      ],
      "min": [
        -1.0,
        -1.0,
        -1.0,
        1.0
      ],
      "type": "VEC4"
    },
    {
      "bufferView": 1,
      "byteOffset": 73304,
      "componentType": 5126,
      "count": 2751,
      "max": [
        0.8820400238037109,
        0.8278740048408508
      ],
      "min": [
        0.01202400028705597,
        0.014462999999523163
      ],
      "type": "VEC2"
    },
    {
      "bufferView": 0,
      "byteOffset": 123528,
      "componentType": 5125,
      "count": 4644,
      "type": "SCALAR"
    },
    {
      "bufferView": 2,
      "byteOffset": 285936,
      "componentType": 5126,
      "count": 2333,
      "max": [
        16.215030670166016,
        36.98550033569336,
        8.999994277954102
      ],
      "min": [
        -16.219074249267578,
        0.0,
        -9.000014305114746
      ],
      "type": "VEC3"
    },
    {
      "bufferView": 2,
      "byteOffset": 313932,
      "componentType": 5126,
      "count": 2333,
      "max": [
        1.0,
        1.0,
        1.0
      ],
      "min": [
        -1.0,
        -1.0,
        -1.0
      ],
      "type": "VEC3"
    },
    {
      "bufferView": 3,
      "byteOffset": 190624,
      "componentType": 5126,
      "count": 2333,
      "max": [
        1.0,
        0.999509334564209,
        1.0,
        1.0
      ],
      "min": [
        -1.0,
        -1.0,
        -1.0,
        1.0
      ],
      "type": "VEC4"
    },
    {
      "bufferView": 1,
      "byteOffset": 95312,
      "componentType": 5126,
      "count": 2333,
      "max": [
        0.9892780184745789,
        0.6200730204582214
      ],
      "min": [
        0.008097999729216099,
        0.014165000058710575
      ],
      "type": "VEC2"
    },
    {
      "bufferView": 0,
      "byteOffset": 142104,
      "componentType": 5125,
      "count": 6084,
      "type": "SCALAR"
    },
    {
      "bufferView": 2,
      "byteOffset": 341928,
      "componentType": 5126,
      "count": 3383,
      "max": [
        17.866004943847656,
        50.990509033203125,
        15.0
      ],
      "min": [
        -15.71728229522705,
        0.0,
        -15.000009536743164
      ],
      "type": "VEC3"
    },
    {
      "bufferView": 2,
      "byteOffset": 382524,
      "componentType": 5126,
      "count": 3383,
      "max": [
        1.0,
        1.0,
        1.0
      ],
      "min": [
        -1.0,
        -1.0,
        -1.0
      ],
      "type": "VEC3"
    },
    {
      "bufferView": 3,
      "byteOffset": 227952,
      "componentType": 5126,
      "count": 3383,
      "max": [
        1.0,
        0.9999893307685852,
        1.0,
        1.0
      ],
      "min": [
        -1.0,
        -0.9999891519546509,
        -1.0,
        -1.0
      ],
      "type": "VEC4"
    },
    {
      "bufferView": 1,
      "byteOffset": 113976,
      "componentType": 5126,
      "count": 3383,
      "max": [
        0.995406985282898,
        0.9920250177383423
      ],
      "min": [
        0.00776899978518486,
        0.005787000060081482
      ],
      "type": "VEC2"
    },
    {
      "bufferView": 0,
      "byteOffset": 166440,
      "componentType": 5125,
      "count": 8970,
      "type": "SCALAR"
    }
  ],
  "asset": {
    "extras": {
      "author": "Alexander Patterson (https://sketchfab.com/adpatt)",
      "license": "CC-BY-4.0 (http://creativecommons.org/licenses/by/4.0/)",
      "source": "https://sketchfab.com/3d-models/6-medieval-fantasy-study-props-3aaefdd3ea0f4b31954ce74a2142b92b",
      "title": "6 Medieval Fantasy Study Props"
    },
    "generator": "Sketchfab-15.70.0",
    "version": "2.0"
  },
  "bufferViews": [
    {
      "buffer": 0,
      "byteLength": 202320,
      "name": "floatBufferViews",
      "target": 34963
    },
    {
      "buffer": 0,
      "byteLength": 141040,
      "byteOffset": 202320,
      "byteStride": 8,
      "name": "floatBufferViews",
      "target": 34962
    },
    {
      "buffer": 0,
      "byteLength": 423120,
      "byteOffset": 343360,
      "byteStride": 12,
      "name": "floatBufferViews",
      "target": 34962
    },
    {
      "buffer": 0,
      "byteLength": 282080,
      "byteOffset": 766480,
      "byteStride": 16,
      "name": "floatBufferViews",
      "target": 34962
    }
  ],
  "buffers": [
    {
      "byteLength": 1048560,
      "uri": "scene.bin"
    }
  ],
  "extensionsUsed": [
    "KHR_materials_emissive_strength",
    "KHR_materials_transmission"
  ],
  "images": [
    {
      "uri": "textures/standardSurface1_baseColor.png"
    },
    {
      "uri": "textures/standardSurface1_metallicRoughness.png"
    },
    {
      "uri": "textures/standardSurface1_emissive.jpeg"
    },
    {
      "uri": "textures/standardSurface1_normal.png"
    },
    {
      "uri": "textures/Old_Scale_baseColor.png"
    },
    {
      "uri": "textures/Old_Scale_metallicRoughness.png"
    },
    {
      "uri": "textures/Old_Scale_emissive.jpeg"
    },
    {
      "uri": "textures/Old_Scale_normal.png"
    },
    {
      "uri": "textures/Locked_Book_baseColor.png"
    },
    {
      "uri": "textures/Locked_Book_metallicRoughness.png"
    },
    {
      "uri": "textures/Locked_Book_emissive.jpeg"
    },
    {
      "uri": "textures/Locked_Book_normal.png"
    },
    {
      "uri": "textures/Candle_Stand_baseColor.png"
    },
    {
      "uri": "textures/Candle_Stand_metallicRoughness.png"
    },
    {
      "uri": "textures/Candle_Stand_emissive.jpeg"
    },
    {
      "uri": "textures/Candle_Stand_normal.png"
    },
    {
      "uri": "textures/Candle_Holder_baseColor.png"
    },
    {
      "uri": "textures/Candle_Holder_metallicRoughness.png"
    },
    {
      "uri": "textures/Candle_Holder_emissive.jpeg"
    },
    {
      "uri": "textures/Candle_Holder_normal.png"
    },
    {
      "uri": "textures/Hour_Glass_baseColor.png"
    },
    {
      "uri": "textures/Hour_Glass_metallicRoughness.png"
    },
    {
      "uri": "textures/Hour_Glass_emissive.jpeg"
    },
    {
      "uri": "textures/Hour_Glass_normal.png"
    },
    {
      "uri": "textures/Hour_Glass_transmission.png"
    }
  ],
  "materials": [
    {
      "alphaMode": "BLEND",
      "doubleSided": true,
      "emissiveFactor": [
        1.0,
        1.0,
        1.0
      ],
      "emissiveTexture": {
        "index": 2
      },
      "extensions": {
        "KHR_materials_emissive_strength": {
          "emissiveStrength": 10.0
        }
      },
      "name": "standardSurface1",
      "normalTexture": {
        "index": 3
      },
      "occlusionTexture": {
        "index": 1
      },
      "pbrMetallicRoughness": {
        "baseColorTexture": {
          "index": 0
        },
        "metallicRoughnessTexture": {
          "index": 1
        }
      }
    },
    {
      "alphaMode": "BLEND",
      "doubleSided": true,
      "emissiveFactor": [
        1.0,
        1.0,
        1.0
      ],
      "emissiveTexture": {
        "index": 6
      },
      "name": "Old_Scale",
      "normalTexture": {
        "index": 7
      },
      "occlusionTexture": {
        "index": 5
      },
      "pbrMetallicRoughness": {
        "baseColorTexture": {
          "index": 4
        },
        "metallicRoughnessTexture": {
          "index": 5
        }
      }
    },
    {
      "alphaMode": "BLEND",
      "doubleSided": true,
      "emissiveFactor": [
        1.0,
        1.0,
        1.0
      ],
      "emissiveTexture": {
        "index": 10
      },
      "name": "Locked_Book",
      "normalTexture": {
        "index": 11
      },
      "occlusionTexture": {
        "index": 9
      },
      "pbrMetallicRoughness": {
        "baseColorTexture": {
          "index": 8
        },
        "metallicRoughnessTexture": {
          "index": 9
        }
      }
    },
    {
      "alphaMode": "BLEND",
      "doubleSided": true,
      "emissiveFactor": [
        1.0,
        1.0,
        1.0
      ],
      "emissiveTexture": {
        "index": 14
      },
      "name": "Candle_Stand",
      "normalTexture": {
        "index": 15
      },
      "occlusionTexture": {
        "index": 13
      },
      "pbrMetallicRoughness": {
        "baseColorTexture": {
          "index": 12
        },
        "metallicRoughnessTexture": {
          "index": 13
        }
      }
    },
    {
      "alphaMode": "BLEND",
      "doubleSided": true,
      "emissiveFactor": [
        1.0,
        1.0,
        1.0
      ],
      "emissiveTexture": {
        "index": 18
      },
      "name": "Candle_Holder",
      "normalTexture": {
        "index": 19
      },
      "occlusionTexture": {
        "index": 17
      },
      "pbrMetallicRoughness": {
        "baseColorTexture": {
          "index": 16
        },
        "metallicRoughnessTexture": {
          "index": 17
        }
      }
    },
    {
      "alphaMode": "BLEND",
      "doubleSided": true,
      "emissiveFactor": [
        1.0,
        1.0,
        1.0
      ],
      "emissiveTexture": {
        "index": 22
      },
      "extensions": {
        "KHR_materials_transmission": {
          "transmissionFactor": 1.0,
          "transmissionTexture": {
            "index": 24
          }
        }
      },
      "name": "Hour_Glass",
      "normalTexture": {
        "index": 23
      },
      "occlusionTexture": {
        "index": 21
      },
      "pbrMetallicRoughness": {
        "baseColorTexture": {
          "index": 20
        },
        "metallicRoughnessTexture": {
          "index": 21
        }
      }
    }
  ],
  "meshes": [
    {
      "name": "defaultMaterial",
      "primitives": [
        {
          "attributes": {
            "NORMAL": 1,
            "POSITION": 0,
            "TANGENT": 2,
            "TEXCOORD_0": 3
          },
          "indices": 4,
          "material": 5,
          "mode": 4
        }
      ]
    },
    {
      "name": "defaultMaterial",
      "primitives": [
        {
          "attributes": {
            "NORMAL": 6,
            "POSITION": 5,
            "TANGENT": 7,
            "TEXCOORD_0": 8
          },
          "indices": 9,
          "material": 4,
          "mode": 4
        }
      ]
    },
    {
      "name": "defaultMaterial",
      "primitives": [
        {
          "attributes": {
            "NORMAL": 11,
            "POSITION": 10,
            "TANGENT": 12,
            "TEXCOORD_0": 13
          },
          "indices": 14,
          "material": 3,
          "mode": 4
        }
      ]
    },
    {
      "name": "defaultMaterial",
      "primitives": [
        {
          "attributes": {
            "NORMAL": 16,
            "POSITION": 15,
            "TANGENT": 17,
            "TEXCOORD_0": 18
          },
          "indices": 19,
          "material": 2,
          "mode": 4
        }
      ]
    },
    {
      "name": "defaultMaterial",
      "primitives": [
        {
          "attributes": {
            "NORMAL": 21,
            "POSITION": 20,
            "TANGENT": 22,
            "TEXCOORD_0": 23
          },
          "indices": 24,
          "material": 1,
          "mode": 4
        }
      ]
    },
    {
      "name": "defaultMaterial",
      "primitives": [
        {
          "attributes": {
            "NORMAL": 26,
            "POSITION": 25,
            "TANGENT": 27,
            "TEXCOORD_0": 28
          },
          "indices": 29,
          "material": 0,
          "mode": 4
        }
      ]
    }
  ],
  "nodes": [
    {
      "children": [
        1
      ],
      "matrix": [
        1.0,
        0.0,
        0.0,
        0.0,
        0.0,
        2.220446049250313e-16,
        -1.0,
        0.0,
        0.0,
        1.0,
        2.220446049250313e-16,
        0.0,
        0.0,
        0.0,
        0.0,
        1.0
      ],
      "name": "Sketchfab_model"
    },
    {
      "children": [
        2,
        4,
        6,
        8,
        10,
        12
      ],
      "matrix": [
        1.0,
        0.0,
        0.0,
        0.0,
        0.0,
        -4.371139006309477e-08,
        0.999999999999999,
        0.0,
        0.0,
        -0.999999999999999,
        -4.371139006309477e-08,
        0.0,
        0.0,
        0.0,
        0.0,
        1.0
      ],
      "name": "Collada visual scene group"
    },
    {
      "children": [
        3
      ],
      "name": "HourGlass"
    },
    {
      "mesh": 0,
      "name": "defaultMaterial"
    },
    {
      "children": [
        5
      ],
      "matrix": [
        1.51207,
        0.0,
        0.0,
        0.0,
        0.0,
        1.51207,
        0.0,
        0.0,
        0.0,
        0.0,
        1.51207,
        0.0,
        50.0,
        0.0,
        -25.0,
        1.0
      ],
      "name": "CandleHolder"
    },
    {
      "mesh": 1,
      "name": "defaultMaterial"
    },
    {
      "children": [
        7
      ],
      "matrix": [
        1.0,
        0.0,
        0.0,
        0.0,
        0.0,
        1.0,
        0.0,
        0.0,
        0.0,
        0.0,
        1.0,
        0.0,
        50.0,
        0.0,
        25.0,
        1.0
      ],
      "name": "CandleStand"
    },
    {
      "mesh": 2,
      "name": "defaultMaterial"
    },
    {
      "children": [
        9
      ],
      "matrix": [
        1.0,
        0.0,
        0.0,
        0.0,
        0.0,
        1.0,
        0.0,
        0.0,
        0.0,
        0.0,
        1.0,
        0.0,
        0.0,
        1.111924,
        -25.0,
        1.0
      ],
      "name": "LockedBook"
    },
    {
      "mesh": 3,
      "name": "defaultMaterial"
    },
    {
      "children": [
        11
      ],
      "matrix": [
        1.0,
        0.0,
        0.0,
        0.0,
        0.0,
        1.0,
        0.0,
        0.0,
        0.0,
        0.0,
        1.0,
        0.0,
        -50.0,
        0.0,
        25.00001,
        1.0
      ],
      "name": "Scale"
    },
    {
      "mesh": 4,
      "name": "defaultMaterial"
    },
    {
      "children": [
        13
      ],
      "matrix": [
        1.272876,
        0.0,
        0.0,
        0.0,
        0.0,
        1.272876,
        0.0,
        0.0,
        0.0,
        0.0,
        1.272876,
        0.0,
        0.0,
        0.0,
        25.0,
        1.0
      ],
      "name": "Globe"
    },
    {
      "mesh": 5,
      "name": "defaultMaterial"
    }
  ],
  "samplers": [
    {
      "magFilter": 9729,
      "minFilter": 9987,
      "wrapS": 10497,
      "wrapT": 10497
    }
  ],
  "scene": 0,
  "scenes": [
    {
      "name": "Sketchfab_Scene",
      "nodes": [
        0
      ]
    }
  ],
  "textures": [
    {
      "sampler": 0,
      "source": 0
    },
    {
      "sampler": 0,
      "source": 1
    },
    {
      "sampler": 0,
      "source": 2
    },
    {
      "sampler": 0,
      "source": 3
    },
    {
      "sampler": 0,
      "source": 4
    },
    {
      "sampler": 0,
      "source": 5
    },
    {
      "sampler": 0,
      "source": 6
    },
    {
      "sampler": 0,
      "source": 7
    },
    {
      "sampler": 0,
      "source": 8
    },
    {
      "sampler": 0,
      "source": 9
    },
    {
      "sampler": 0,
      "source": 10
    },
    {
      "sampler": 0,
      "source": 11
    },
    {
      "sampler": 0,
      "source": 12
    },
    {
      "sampler": 0,
      "source": 13
    },
    {
      "sampler": 0,
      "source": 14
    },
    {
      "sampler": 0,
      "source": 15
    },
    {
      "sampler": 0,
      "source": 16
    },
    {
      "sampler": 0,
      "source": 17
    },
    {
      "sampler": 0,
      "source": 18
    },
    {
      "sampler": 0,
      "source": 19
    },
    {
      "sampler": 0,
      "source": 20
    },
    {
      "sampler": 0,
      "source": 21
    },
    {
      "sampler": 0,
      "source": 22
    },
    {
      "sampler": 0,
      "source": 23
    },
    {
      "sampler": 0,
      "source": 24
    }
  ]
}
